<svg xmlns="http://www.w3.org/2000/svg" viewBox="0 0 1400 900">
<defs>
<linearGradient id="bg" x1="0" x2="1" y1="0" y2="1"><stop offset="0" stop-color="#dff6ff"/><stop offset=".45" stop-color="#f8fcff"/><stop offset="1" stop-color="#0b4f2b"/></linearGradient>
<filter id="s" x="-20%" y="-20%" width="140%" height="140%"><feDropShadow dx="0" dy="18" stdDeviation="16" flood-color="#000" flood-opacity=".25"/></filter>
</defs>
<rect width="1400" height="900" fill="url(#bg)"/>
<circle cx="1150" cy="130" r="230" fill="#ffffff" opacity=".25"/>
<rect x="70" y="560" width="1260" height="210" rx="40" fill="#0b4f2b" opacity=".16"/>
<g filter="url(#s)">
<ellipse cx="630" cy="315" rx="280" ry="62" fill="#f8fbff"/>
<rect x="350" y="315" width="560" height="320" fill="#e9f3f8"/>
<ellipse cx="630" cy="635" rx="280" ry="62" fill="#d5e5ef"/>
<path d="M350 315c0 42 125 76 280 76s280-34 280-76v320c0 42-125 76-280 76s-280-34-280-76z" fill="#eff8fb"/>
<path d="M440 360h380v230H440z" fill="#dcecf3" opacity=".75"/>
<text x="630" y="490" text-anchor="middle" font-family="Arial" font-size="54" font-weight="700" fill="#08743d">HISN OMAN</text>
<text x="630" y="550" text-anchor="middle" font-family="Arial" font-size="38" font-weight="700" fill="#d7192a">Tank Cleaning</text>
</g>
<g transform="translate(945 285)" filter="url(#s)">
<circle cx="118" cy="70" r="42" fill="#ffd7b5"/>
<rect x="56" y="112" width="130" height="190" rx="28" fill="#0b4f2b"/>
<rect x="76" y="135" width="90" height="58" rx="12" fill="#fff"/>
<text x="121" y="171" text-anchor="middle" font-family="Arial" font-size="22" font-weight="700" fill="#08743d">حصن</text>
<path d="M50 132c-55 45-68 105-52 155" fill="none" stroke="#0b4f2b" stroke-width="36" stroke-linecap="round"/>
<path d="M188 132c60 40 75 98 60 151" fill="none" stroke="#0b4f2b" stroke-width="36" stroke-linecap="round"/>
<path d="M30 315h70v200H30zM140 315h70v200h-70z" fill="#24322b"/>
<path d="M0 300h240" stroke="#1b2a22" stroke-width="32" stroke-linecap="round"/>
</g>
</svg>